<svg width="181" height="181" viewBox="0 0 181 181" fill="none" xmlns="http://www.w3.org/2000/svg">
<circle cx="90.5" cy="90.5" r="88" fill="#EFEFEF" stroke="white" stroke-width="5"/>
<path fill-rule="evenodd" clip-rule="evenodd" d="M114.346 64.6538H66.6538C65.5492 64.6538 64.6538 65.5492 64.6538 66.6538V98.0159L83.5854 93.5985C84.4794 93.3899 85.3943 93.2846 86.3122 93.2846H94.6878C95.6057 93.2846 96.5206 93.3899 97.4145 93.5985L116.346 98.0159V66.6538C116.346 65.5492 115.451 64.6538 114.346 64.6538ZM115.562 115.562H115.935C115.827 115.702 115.702 115.827 115.562 115.935V115.562ZM65.4384 115.562H65.0653C65.1727 115.702 65.2983 115.827 65.4384 115.935V115.562ZM66.6538 62.6538C64.4447 62.6538 62.6538 64.4447 62.6538 66.6538V114.346C62.6538 116.555 64.4447 118.346 66.6538 118.346H114.346C116.555 118.346 118.346 116.555 118.346 114.346V66.6538C118.346 64.4447 116.555 62.6538 114.346 62.6538H66.6538ZM77.8427 82.9056C80.6389 82.9056 82.9056 80.6388 82.9056 77.8426C82.9056 75.0465 80.6389 72.7797 77.8427 72.7797C75.0465 72.7797 72.7798 75.0465 72.7798 77.8426C72.7798 80.6388 75.0465 82.9056 77.8427 82.9056Z" fill="#CDCDCD"/>
</svg>
