<svg width="38" height="38" viewBox="0 0 38 38" fill="none" xmlns="http://www.w3.org/2000/svg">
<path fill-rule="evenodd" clip-rule="evenodd" d="M20.5924 21.5552C19.1604 23.1303 16.8388 23.1303 15.4069 21.5552C13.975 19.9801 13.975 17.4263 15.4069 15.8512C16.8388 14.2761 19.1604 14.2761 20.5924 15.8512C22.0243 17.4263 22.0243 19.9801 20.5924 21.5552ZM21.0327 23.0765C19.0725 24.7258 16.2569 24.5644 14.4641 22.5923C12.5115 20.4444 12.5115 16.962 14.4641 14.8141C16.4167 12.6662 19.5825 12.6662 21.5352 14.8141C23.3279 16.7862 23.4747 19.8831 21.9755 22.0393L25.5422 25.9627L24.5994 26.9998L21.0327 23.0765Z" fill="#1E1E1E"/>
</svg>
